<svg xmlns="http://www.w3.org/2000/svg" width="192" height="192" viewBox="0 0 192 192" fill="none">
  <rect width="192" height="192" rx="32" fill="#8B0000"/>
  <path d="M96 40C64.9 40 40 64.9 40 96C40 127.1 64.9 152 96 152C127.1 152 152 127.1 152 96C152 64.9 127.1 40 96 40ZM96 144C69.5 144 48 122.5 48 96C48 69.5 69.5 48 96 48C122.5 48 144 69.5 144 96C144 122.5 122.5 144 96 144Z" fill="#FFD700"/>
  <path d="M96 56C74.1 56 56 74.1 56 96C56 117.9 74.1 136 96 136C117.9 136 136 117.9 136 96C136 74.1 117.9 56 96 56ZM96 128C78.4 128 64 113.6 64 96C64 78.4 78.4 64 96 64C113.6 64 128 78.4 128 96C128 113.6 113.6 128 96 128Z" fill="#FFD700"/>
  <path d="M96 72C82.7 72 72 82.7 72 96C72 109.3 82.7 120 96 120C109.3 120 120 109.3 120 96C120 82.7 109.3 72 96 72ZM96 112C87.2 112 80 104.8 80 96C80 87.2 87.2 80 96 80C104.8 80 112 87.2 112 96C112 104.8 104.8 112 96 112Z" fill="#FFD700"/>
  <circle cx="96" cy="96" r="12" fill="#FFD700"/>
</svg>