<svg xmlns="http://www.w3.org/2000/svg" width="512" height="512" viewBox="0 0 512 512" fill="none">
  <rect width="512" height="512" rx="64" fill="#8B0000"/>
  <path d="M256 96C172.8 96 106 162.8 106 246C106 329.2 172.8 396 256 396C339.2 396 406 329.2 406 246C406 162.8 339.2 96 256 96ZM256 380C181.7 380 122 320.3 122 246C122 171.7 181.7 112 256 112C330.3 112 390 171.7 390 246C390 320.3 330.3 380 256 380Z" fill="#FFD700"/>
  <path d="M256 136C193.5 136 142 187.5 142 250C142 312.5 193.5 364 256 364C318.5 364 370 312.5 370 250C370 187.5 318.5 136 256 136ZM256 348C202.4 348 158 303.6 158 250C158 196.4 202.4 152 256 152C309.6 152 354 196.4 354 250C354 303.6 309.6 348 256 348Z" fill="#FFD700"/>
  <path d="M256 176C215.8 176 184 207.8 184 248C184 288.2 215.8 320 256 320C296.2 320 328 288.2 328 248C328 207.8 296.2 176 256 176ZM256 304C224.7 304 200 279.3 200 248C200 216.7 224.7 192 256 192C287.3 192 312 216.7 312 248C312 279.3 287.3 304 256 304Z" fill="#FFD700"/>
  <circle cx="256" cy="248" r="32" fill="#FFD700"/>
</svg>